<svg version="1.1" id="Layer_1" xmlns="http://www.w3.org/2000/svg" xmlns:xlink="http://www.w3.org/1999/xlink" x="0px" y="0px"
	 width="100%" viewBox="0 0 736 688" enable-background="new 0 0 736 688" xml:space="preserve">
<path fill="#000000" opacity="1.000000" stroke="none" 
	d="
M612.350830,69.311737 
	C637.330200,52.359848 661.933411,35.476570 688.795959,22.285610 
	C697.033752,18.240427 705.560303,14.898269 714.610535,13.090713 
	C730.202209,9.976645 738.896240,19.601852 734.365540,34.823887 
	C729.939270,49.695148 723.944275,63.983635 718.202332,78.354630 
	C704.662415,112.242371 694.121338,147.160736 682.371521,181.662613 
	C677.248840,196.704483 669.700745,210.262131 658.933167,221.962418 
	C655.497131,225.696152 652.940002,229.817841 651.180908,234.617020 
	C643.611877,255.267929 635.432983,275.696594 625.771851,295.450745 
	C621.702087,303.772095 624.156372,311.825409 624.707275,319.940552 
	C626.058289,339.843994 628.651245,359.639069 629.534668,379.605835 
	C630.057922,391.433289 630.215515,403.243469 630.325684,415.065826 
	C630.392029,422.195892 629.324463,422.926483 622.519775,420.114838 
	C622.333679,428.891602 621.360291,437.413422 619.866577,445.850769 
	C616.050842,467.404266 604.952759,485.120880 590.658264,501.219086 
	C581.903503,511.078583 572.548523,520.338318 563.155945,529.551147 
	C542.739502,549.576721 526.269592,572.945129 507.553772,594.383362 
	C490.356873,614.081787 471.638428,632.623169 448.203186,645.074341 
	C427.570862,656.036316 405.461609,662.981567 381.959473,663.937927 
	C364.709015,664.639771 348.091187,661.355408 333.228668,651.942749 
	C323.043518,645.492310 312.511322,640.053162 300.816772,636.714172 
	C293.596283,634.652527 287.068817,630.731140 281.672455,625.297241 
	C280.046051,623.659546 278.774353,622.646057 276.135223,623.895630 
	C273.060028,625.351562 270.336823,623.192505 267.963501,621.374329 
	C258.968964,614.483826 250.078598,607.457581 241.101944,600.543579 
	C216.458572,581.562927 188.595612,568.425110 160.271332,556.144592 
	C153.701660,553.296143 147.143555,550.367981 140.399963,547.986694 
	C131.197403,544.737061 122.771629,540.718628 118.827873,531.115845 
	C116.792244,531.514038 116.728470,533.149475 115.841888,534.044556 
	C112.255981,537.664551 108.386963,537.015076 107.411148,532.129517 
	C103.324539,511.669403 93.052338,494.358765 80.881424,477.835999 
	C70.051720,463.133972 61.187443,447.403809 57.252838,429.236816 
	C54.362091,415.889648 56.121216,402.759521 58.203678,389.608185 
	C59.264149,382.910980 60.707855,376.274475 61.997890,369.507935 
	C59.442566,370.287628 57.191216,373.907074 54.506828,371.619293 
	C51.858845,369.362579 54.254395,366.290588 55.151020,363.776245 
	C60.128403,349.818298 65.171051,335.881592 70.416931,322.023041 
	C71.463509,319.258209 71.390282,316.995880 70.124336,314.445374 
	C61.513557,297.097076 55.055981,278.892487 48.894897,260.576904 
	C48.185635,258.468414 47.125751,256.829529 45.460052,255.271912 
	C41.359146,251.437164 40.656422,246.102692 43.467625,241.310730 
	C44.342537,239.819366 44.223152,238.555603 43.913815,237.054031 
	C41.468391,225.183487 39.600365,213.255615 33.091148,202.521057 
	C27.060143,192.575119 26.494785,181.001358 25.749498,169.701202 
	C24.556028,151.605591 23.785143,133.481613 22.534540,115.390427 
	C20.926331,92.126114 19.768536,68.847580 19.951509,45.528641 
	C20.003433,38.911346 20.274082,32.199570 22.338385,25.783367 
	C25.171806,16.976612 30.803240,13.669188 39.906544,15.104754 
	C48.813206,16.509314 56.750389,20.223959 64.248123,25.003605 
	C85.264389,38.401043 103.562431,55.277428 122.844727,70.893929 
	C143.556580,87.668205 163.680527,105.204964 186.009430,119.887444 
	C191.022705,123.183952 196.370071,125.904884 201.941101,128.186630 
	C206.559357,130.078140 210.765686,129.774216 215.314651,127.445534 
	C232.074295,118.866058 249.049652,110.694366 267.138824,105.230606 
	C287.421631,99.104263 308.213623,95.768303 329.285828,93.566406 
	C375.060516,88.783264 418.678680,97.583084 461.418243,113.089966 
	C476.343750,118.505295 491.729401,121.741417 507.783539,121.798210 
	C522.768372,121.851212 536.291565,117.382492 549.068115,110.123993 
	C570.818420,97.767494 591.721680,84.081245 612.350830,69.311737 
M465.321075,542.730469 
	C476.035339,542.540588 485.595825,539.012512 493.903503,532.353699 
	C511.862152,517.959167 525.886841,482.657898 516.023926,456.077820 
	C511.044891,442.659607 503.511047,430.726837 495.733459,418.882324 
	C485.952209,403.986450 475.692078,389.379944 468.675293,372.848938 
	C461.817596,356.692780 458.085052,339.942993 458.708069,322.328735 
	C458.804138,319.613190 458.418579,316.627533 461.426178,315.052094 
	C463.706024,315.961914 463.251862,317.854919 463.393311,319.421967 
	C465.937256,347.597168 475.910858,373.029785 491.557098,396.427887 
	C498.595032,406.952759 505.526184,417.555847 512.232422,428.294128 
	C522.211914,444.273590 528.903870,461.274078 527.371338,480.633484 
	C527.278381,481.807953 526.728149,483.254272 528.243042,484.437653 
	C533.333008,478.968170 535.547424,471.755920 539.282227,465.207336 
	C542.063232,467.850616 541.304993,470.179260 540.800476,472.404114 
	C538.908142,480.748749 534.865784,488.035950 528.812866,493.953827 
	C525.207642,497.478668 523.125122,501.536621 521.341614,506.091492 
	C515.928223,519.916870 508.952545,532.860168 496.198181,541.306091 
	C490.697083,544.948914 489.358978,550.157532 487.497101,555.824463 
	C489.661377,555.608643 490.537079,554.296753 491.514740,553.221497 
	C509.114349,533.865540 526.918884,514.688293 543.616699,494.534943 
	C552.055603,484.349640 559.747253,473.628906 563.108093,460.568787 
	C566.583862,447.062286 561.237366,439.672150 547.441467,438.290802 
	C546.296814,438.176208 545.061890,438.310425 544.241455,436.638245 
	C544.901978,433.724579 547.321289,432.987274 550.066528,432.729584 
	C557.582397,432.024109 565.186829,436.471466 568.328003,443.339172 
	C570.943054,449.056641 570.941467,455.004578 569.617676,460.950745 
	C566.999207,472.712402 561.391907,483.075043 554.054626,492.513245 
	C537.588623,513.693848 520.322510,534.225098 503.100037,554.786743 
	C491.238007,568.948547 478.257935,582.230835 470.074219,599.147888 
	C466.068268,607.428894 460.679657,614.847046 454.989899,622.067566 
	C450.815674,627.364868 445.685699,631.786194 440.822113,637.350159 
	C444.342102,636.938232 446.625092,635.548889 448.842072,634.163269 
	C469.324524,621.361084 487.677856,605.953369 503.587219,587.821716 
	C515.670227,574.050903 526.076538,558.888794 538.193909,545.104492 
	C552.624878,528.688293 568.721313,513.906433 583.694824,498.016541 
	C605.900574,474.451782 616.442505,446.748627 616.014709,414.597687 
	C615.904358,406.303467 615.943665,406.302948 623.365906,408.366150 
	C623.441467,407.695618 623.603821,407.047028 623.572021,406.408112 
	C623.373352,402.418640 623.018616,398.434052 622.921570,394.442841 
	C622.192871,364.470032 619.503967,334.638641 614.559509,305.107544 
	C609.652710,275.800995 596.734253,250.134567 575.643372,228.925552 
	C572.408020,225.672043 569.545471,223.139709 575.636414,219.818192 
	C574.006165,218.370224 572.771851,217.280762 571.544861,216.183060 
	C564.332520,209.730545 557.233215,203.151489 551.744812,195.103912 
	C549.377258,191.632324 546.712830,188.105652 548.145325,182.012100 
	C561.898193,199.425705 578.884583,212.017426 594.974792,225.274399 
	C592.566467,228.834488 589.187256,227.240448 586.696594,229.449905 
	C603.858032,246.546204 611.751770,268.432892 619.093018,290.613770 
	C619.511658,290.563934 619.930298,290.514130 620.348938,290.464294 
	C627.666443,272.742096 634.983948,255.019897 642.624023,236.516373 
	C626.212524,243.208588 625.093445,243.394287 621.265259,240.167480 
	C623.013367,237.333176 626.143921,236.291962 628.702698,234.571564 
	C647.359802,222.027100 662.590210,206.549561 670.705261,185.111099 
	C674.888672,174.059402 679.021973,162.968918 682.604370,151.713425 
	C692.355408,121.076714 702.886658,90.736397 715.180725,61.013638 
	C719.056885,51.642448 723.322998,42.386173 725.654785,32.441738 
	C727.991394,22.476582 724.831787,19.330641 714.780945,21.852543 
	C704.554871,24.418406 694.851746,28.404987 685.643066,33.525639 
	C664.064148,45.524940 643.419434,58.992306 623.413208,73.445343 
	C599.083130,91.022041 574.359192,108.016594 547.468506,121.490883 
	C533.437439,128.521515 518.396179,131.810150 502.544647,131.050735 
	C486.082397,130.262070 470.355347,126.265480 454.935669,120.773041 
	C428.371552,111.310997 401.366760,103.339317 373.104187,101.553604 
	C341.878235,99.580666 310.954102,102.412842 280.507477,110.076897 
	C260.012238,115.235977 240.725998,123.324944 222.122116,133.155060 
	C212.137466,138.430862 202.274841,138.818344 191.939316,134.121078 
	C179.515259,128.474625 168.615524,120.534752 158.119064,112.060303 
	C130.893402,90.079300 103.978111,67.713425 76.715813,45.778484 
	C66.085472,37.225430 55.171452,28.853760 42.006519,24.362869 
	C32.435284,21.097881 28.799171,23.537981 28.403288,33.546608 
	C27.665306,52.204079 28.031557,70.877426 29.521538,89.472740 
	C31.793619,117.828819 33.386589,146.226028 35.382271,174.597687 
	C36.369518,188.632935 40.706951,201.235153 51.565403,211.038132 
	C58.277210,217.097549 65.336617,222.593674 73.125099,227.182526 
	C74.733841,228.130371 76.943687,228.642288 77.263077,231.763046 
	C72.449356,233.020203 68.169098,231.161743 64.027954,229.468643 
	C59.623817,227.667999 55.433609,225.344131 50.842827,223.098465 
	C55.341290,252.491455 63.014584,280.545288 75.538269,308.446869 
	C87.426834,280.297577 106.350838,258.878326 129.181458,240.653702 
	C127.875603,239.271393 126.854362,239.970474 125.931305,239.861435 
	C124.300072,239.668701 122.399734,239.927444 121.674911,237.975800 
	C120.931900,235.975143 122.598297,234.910858 123.791740,233.842392 
	C143.721191,216.000031 160.731766,195.423538 178.488983,175.545761 
	C179.745331,174.139343 180.876617,172.412567 183.570404,172.491821 
	C183.523972,177.786285 180.465637,181.365479 177.688782,185.006241 
	C168.485809,197.072342 158.580673,208.549606 148.313660,219.718430 
	C144.888474,223.444504 141.481171,227.187027 137.978088,231.017822 
	C140.517441,232.472305 143.877808,230.279846 144.736710,233.134338 
	C145.584274,235.951172 142.450562,237.290680 140.749619,238.933426 
	C132.960754,246.455872 124.989746,253.789383 117.177666,261.288147 
	C89.478271,287.876587 77.595306,322.939636 65.032898,357.995209 
	C71.530373,356.626526 73.443359,357.849091 71.763519,362.298401 
	C68.085274,372.040802 66.400475,382.194885 64.822548,392.387695 
	C63.086536,403.601776 61.957581,414.885986 64.114220,426.143707 
	C66.954178,440.968506 73.711311,454.176941 82.300613,466.377502 
	C94.550194,483.777313 107.296814,500.839905 112.367767,522.233826 
	C114.309036,519.804199 113.639160,515.439087 116.839279,515.214722 
	C120.452255,514.961487 120.744949,519.217285 122.063751,521.718079 
	C124.812126,526.929749 128.033218,531.719971 132.443817,535.672668 
	C134.465042,537.484009 136.700287,538.952087 139.329636,539.586853 
	C149.916214,542.142883 159.785385,546.606567 169.728271,550.877502 
	C201.569763,564.554871 231.789978,580.943909 258.235443,603.678894 
	C262.995087,607.770752 267.943176,611.643494 272.775146,615.593628 
	C278.364716,609.355408 279.686646,609.506958 284.068146,616.020081 
	C289.532837,624.143311 297.278168,629.200439 306.661682,631.425537 
	C314.384796,633.256897 321.673431,635.944519 328.241608,640.332703 
	C348.597961,653.932495 371.038666,656.718323 395.565521,653.218567 
	C381.600464,653.260620 368.912964,651.041016 356.873138,645.702576 
	C336.021454,636.456848 320.014252,621.515930 306.719574,603.288757 
	C293.252167,584.824646 281.689697,565.116028 269.072601,546.096741 
	C255.843826,526.155396 241.227402,507.485138 223.556641,491.229126 
	C214.328171,482.739563 205.770004,473.609772 203.084595,460.590424 
	C200.361450,447.388214 209.695724,432.403961 222.109634,430.357910 
	C223.852997,430.070618 225.748627,429.352570 226.848877,431.734650 
	C225.727921,434.245026 223.133987,434.968964 221.165573,436.364349 
	C209.865067,444.375244 207.171890,454.975189 213.396561,467.364807 
	C216.295578,473.135040 220.645279,477.762085 225.370667,481.980713 
	C250.074860,504.035339 270.321198,529.670837 287.547729,557.883606 
	C297.704132,574.517212 308.190674,591.001404 321.016388,605.783020 
	C343.142822,631.283875 369.876190,645.384094 404.771606,639.748291 
	C421.066589,637.116516 433.231232,628.034119 444.092346,616.538086 
	C441.992188,617.742004 440.059326,619.225037 438.238892,620.835266 
	C427.276581,630.531433 414.101624,634.143188 399.905609,633.908386 
	C383.806061,633.642029 369.340393,627.907227 356.100037,618.924133 
	C342.114624,609.435486 330.987274,597.078613 321.090332,583.577881 
	C307.999847,565.720764 296.434326,546.765076 281.691925,530.095154 
	C264.901764,511.109589 249.706665,490.825531 234.413895,470.634918 
	C233.023346,468.799011 231.037643,467.070343 231.261734,463.370331 
	C236.864120,466.033905 241.178055,469.232941 244.859146,473.257111 
	C253.180420,482.354065 261.294220,491.642822 269.704041,500.656097 
	C275.036621,506.371399 279.675201,512.805969 286.976257,518.400574 
	C278.494110,501.751190 276.127319,485.555817 279.385834,468.373627 
	C283.609650,446.101349 293.425995,426.098053 303.973053,406.424896 
	C317.084930,381.967651 329.088287,357.176178 333.351868,329.363098 
	C334.063538,324.720734 333.832947,319.793945 336.316376,315.485901 
	C337.887024,316.148590 338.192413,317.303650 338.234619,318.475006 
	C338.498566,325.798096 338.759918,333.127869 337.829376,340.425903 
	C335.283264,360.394897 327.038513,378.392334 318.598846,396.352692 
	C310.242126,414.136444 300.045959,431.007721 292.770996,449.334717 
	C287.154663,463.483276 283.533691,477.968475 285.495422,493.195282 
	C290.132935,529.191223 322.970978,552.388306 358.508118,545.185425 
	C373.488342,542.149109 388.315002,538.503540 403.688934,537.371887 
	C417.293488,536.370422 418.286987,534.857666 421.871155,521.709900 
	C425.270142,509.241364 423.862091,496.573181 423.176208,483.963745 
	C422.969910,480.171600 421.982758,476.421936 421.353333,472.652832 
	C421.195892,486.370850 419.210938,499.653992 416.207520,512.835083 
	C414.713837,519.390381 413.814117,519.943726 407.394501,517.725037 
	C392.938568,512.728760 379.646973,505.459747 367.416901,496.389496 
	C349.719086,483.264282 343.481628,464.969482 347.048187,443.935333 
	C350.179840,425.465973 363.065735,414.196106 380.557068,409.976044 
	C407.076294,403.577911 433.932831,405.062988 459.889404,413.122803 
	C478.299408,418.839386 488.488739,434.866150 488.271454,454.121857 
	C488.111328,468.311279 482.480286,480.638031 474.129608,491.811005 
	C463.814148,505.612823 449.433655,513.307251 433.460114,518.577026 
	C429.212463,519.978333 426.158783,525.647705 426.371582,531.469604 
	C426.534393,535.924072 430.082397,537.105591 433.407959,538.168457 
	C443.466949,541.383240 453.777130,543.083374 465.321075,542.730469 
M411.049713,584.299377 
	C408.812775,582.458313 408.472107,579.719421 407.783051,577.187134 
	C405.439880,568.576355 405.348785,559.756104 405.702393,550.936768 
	C405.850922,547.232178 404.592682,545.829224 400.796204,546.203064 
	C390.679169,547.199402 380.779816,549.288696 370.937622,551.715210 
	C368.643402,552.280823 366.880585,553.457642 367.394989,556.236145 
	C369.979828,570.198425 375.274078,582.402222 389.068787,588.906555 
	C402.911377,595.433411 416.967072,593.740906 428.284760,584.973267 
	C437.719147,577.664551 441.909363,565.174988 448.285034,554.896606 
	C449.410126,553.082825 448.362061,551.235352 446.092743,550.796021 
	C435.864532,548.815857 425.715790,546.261536 415.520813,545.996948 
	C414.224854,547.184814 414.355865,548.411499 414.175568,549.543335 
	C412.620056,559.308777 413.640625,569.156555 413.210602,578.957031 
	C413.127991,580.840393 413.952087,583.041321 411.049713,584.299377 
M348.177094,601.328247 
	C360.431915,612.921753 373.857880,622.668335 390.772064,626.043823 
	C403.644836,628.612732 416.016632,626.607422 427.518219,620.106079 
	C415.794830,621.629944 404.042206,622.619141 392.395569,620.207764 
	C378.642548,617.360291 365.739166,612.557983 357.263824,600.344971 
	C355.404358,597.665466 353.519989,595.645203 350.441254,594.243896 
	C338.365082,588.747192 333.386932,575.524719 338.372192,563.261108 
	C339.160431,561.322083 340.644226,559.560120 340.244629,556.577393 
	C328.300751,554.660706 316.696960,551.115295 305.764252,545.143555 
	C317.694427,565.441345 330.982147,584.417908 348.177094,601.328247 
M373.521210,606.004456 
	C387.280731,613.934937 402.242432,615.119385 417.550354,613.351501 
	C427.861328,612.160583 437.184937,608.609985 443.177490,599.324402 
	C437.517914,591.789246 437.611481,591.979004 429.509186,595.974121 
	C419.802490,600.760376 409.693420,603.194214 398.630127,601.560547 
	C387.556610,599.925415 377.993408,595.596436 369.925110,587.972168 
	C361.957886,596.645874 362.056610,597.712280 371.238495,604.524597 
	C371.772827,604.921082 372.341064,605.271851 373.521210,606.004456 
M450.258087,570.787170 
	C446.705109,574.431213 444.943756,578.740234 445.211578,583.882507 
	C445.349243,586.525696 445.906769,588.987061 448.483734,590.157349 
	C451.376587,591.471130 453.753296,589.909302 455.585999,587.884338 
	C462.470978,580.277161 462.561310,570.931946 462.978699,560.645142 
	C457.680664,563.630920 454.627991,567.472534 450.258087,570.787170 
M371.145294,465.507141 
	C374.541321,467.010040 377.972687,467.893494 381.724823,466.774384 
	C385.186798,465.741852 387.992340,463.725098 388.304932,460.156189 
	C388.614655,456.620331 386.317963,453.969818 383.089478,452.386871 
	C379.585846,450.669098 375.994476,450.978485 372.491943,452.285522 
	C369.571228,453.375427 365.715790,454.243164 365.120056,457.499237 
	C364.475067,461.024414 367.786713,463.204132 371.145294,465.507141 
M448.406281,466.212097 
	C452.073181,470.180817 456.676178,469.100311 460.956818,468.102905 
	C464.305389,467.322662 468.400177,465.857483 469.103668,462.338806 
	C469.768585,459.013062 465.590515,457.590302 463.357086,455.497864 
	C462.879120,455.050079 462.273926,454.734467 461.715179,454.377045 
	C458.149597,452.096344 454.146790,450.775604 450.614594,453.567139 
	C446.794281,456.586334 445.644592,460.886139 448.406281,466.212097 
M360.638916,575.981384 
	C359.866943,571.214355 357.258545,567.399841 354.397919,563.674438 
	C351.931671,560.462646 349.976624,561.001892 347.837830,564.049866 
	C344.061432,569.431458 344.124176,575.888733 348.463348,581.065125 
	C350.785034,583.834778 353.448212,587.272949 357.472839,585.915344 
	C361.595398,584.524658 360.677826,580.254089 360.638916,575.981384 
M363.520752,474.438812 
	C364.918762,481.911835 371.026581,484.754395 376.762115,487.975098 
	C373.190948,482.639191 369.915344,477.044220 363.520752,474.438812 
M474.389832,561.609192 
	C476.918701,558.821411 479.086090,555.859680 479.485687,551.590576 
	C476.499847,551.071350 474.546539,551.438599 474.292023,554.625916 
	C474.109619,556.910156 474.028839,559.202454 474.389832,561.609192 
z"/>
<path fill="#000000" opacity="1.000000" stroke="none" 
	d="
M670.946594,120.112259 
	C678.590698,99.815323 686.099304,79.882675 693.764038,59.535618 
	C680.016907,64.046486 623.558289,116.130035 613.859924,132.843124 
	C614.005798,133.129837 614.086121,133.560669 614.320740,133.675079 
	C622.328552,137.579346 622.903503,139.823486 617.825195,147.376099 
	C614.650146,152.098160 610.431519,155.870682 606.281006,159.702728 
	C607.328125,161.317322 608.852722,160.715561 610.044250,161.031494 
	C613.499634,161.947556 614.709167,164.883148 613.003784,167.105270 
	C605.680176,176.648148 597.251770,185.051346 585.422058,189.024170 
	C585.190247,189.102036 584.830078,188.797699 583.282776,188.148254 
	C586.816040,181.007141 593.385803,176.665131 598.322632,171.076385 
	C597.992310,170.767075 597.797607,170.419937 597.555176,170.382614 
	C594.367859,169.891968 590.205994,170.765488 589.040955,166.731995 
	C587.998413,163.122543 591.595520,161.289917 593.764893,159.140625 
	C598.468750,154.480515 603.798279,150.436859 607.871887,145.069366 
	C606.266663,142.963898 604.133423,143.562515 602.253784,143.321777 
	C597.196289,142.674011 595.203552,139.409332 597.574524,134.855530 
	C599.251160,131.635300 601.443542,128.614426 603.780579,125.817879 
	C629.708374,94.791656 659.729919,68.290535 693.057617,45.486652 
	C698.195007,41.971443 702.522827,44.102459 703.247864,50.330070 
	C703.944092,56.310783 702.130249,61.936756 700.159058,67.391136 
	C688.614197,99.337891 676.910522,131.227310 665.248108,163.131546 
	C660.791443,175.323318 656.965393,187.794418 650.309509,199.053879 
	C643.209351,211.064651 634.445374,221.388641 620.565796,225.840942 
	C617.792175,226.730682 614.722290,228.585663 611.720886,226.204010 
	C611.714294,223.669937 613.773132,223.549973 615.108459,222.864639 
	C624.117859,218.240555 630.929260,211.421280 636.142273,202.775742 
	C647.663208,183.668640 654.954651,162.719971 662.871826,142.041138 
	C665.610474,134.888229 668.169861,127.666725 670.946594,120.112259 
z"/>
<path fill="#000000" opacity="1.000000" stroke="none" 
	d="
M122.440010,132.511642 
	C110.735329,114.626747 94.786003,101.508568 78.402672,88.866592 
	C71.439552,83.493599 64.199196,78.479881 56.783737,73.083778 
	C55.311745,75.516991 55.573875,77.772812 55.561703,79.755081 
	C55.361362,112.384483 55.762287,144.973724 64.159813,176.843628 
	C67.932625,191.162033 73.172348,204.729874 83.934929,215.486374 
	C84.818794,216.369720 85.915276,217.339066 85.549568,218.972794 
	C83.186440,220.288177 81.423630,218.708633 79.645821,217.648575 
	C66.456711,209.784363 60.174488,197.129028 55.834011,183.145203 
	C49.720234,163.448318 47.382885,143.145432 46.794525,122.660759 
	C46.336037,106.697754 46.098335,90.697037 47.716354,74.756516 
	C47.883560,73.109245 48.268772,71.483124 48.572624,69.850876 
	C50.114746,61.566811 54.775227,58.743504 61.539097,63.380619 
	C88.638405,81.959137 115.306938,101.132919 133.930008,129.090973 
	C135.035583,130.750717 136.025055,132.497406 136.952271,134.264648 
	C141.222931,142.404449 140.441055,144.404648 131.767456,147.230133 
	C133.301605,151.420090 137.055038,153.490143 140.151154,156.105148 
	C141.922379,157.601135 144.034363,158.685928 145.894501,160.086578 
	C147.702377,161.447906 150.411331,162.570114 149.785294,165.329559 
	C149.220627,167.818588 146.592545,168.660461 144.348831,169.218323 
	C140.852631,170.087616 137.269623,170.607727 133.195328,171.375305 
	C138.455292,175.600906 145.782822,175.538956 150.113144,181.338440 
	C146.975677,182.771362 144.578217,182.159073 142.169724,181.694489 
	C136.587570,180.617722 131.239014,178.838776 126.031952,176.568146 
	C123.341629,175.394958 121.090912,173.722153 119.702682,171.156525 
	C118.280922,168.528900 118.004852,165.680191 119.751762,163.096725 
	C121.390327,160.673508 123.965126,161.559113 126.184875,161.929733 
	C128.314697,162.285355 130.377747,162.994843 132.933441,162.173157 
	C129.936569,158.772644 126.863647,155.653076 124.220337,152.204254 
	C119.761459,146.386597 119.736290,144.377686 123.844208,138.115234 
	C125.444237,135.676041 123.353134,134.495041 122.440010,132.511642 
z"/>
<path fill="#000000" opacity="1.000000" stroke="none" 
	d="
M152.486542,466.517212 
	C166.695770,482.699005 183.579208,495.138702 200.944168,506.980255 
	C211.405777,514.114258 222.278015,520.601440 233.196121,527.010986 
	C234.933395,528.030884 237.340942,528.713135 237.038208,531.572998 
	C235.167831,533.158569 233.410217,531.989746 231.905624,531.253540 
	C200.580627,515.927368 171.291534,497.633514 147.798508,471.393555 
	C137.874542,460.309235 131.674362,447.421661 132.633896,431.904053 
	C133.107819,424.239899 136.084229,417.424500 139.267120,410.553375 
	C137.610443,409.708588 136.271820,410.454132 134.919342,410.875305 
	C133.130890,411.432190 131.295288,412.012054 129.884094,410.222443 
	C128.205887,408.094238 129.713028,406.362091 130.984329,404.905792 
	C137.882538,397.003662 144.870911,389.180084 151.848526,381.347565 
	C154.063583,378.861115 156.304443,376.395172 158.608109,373.991364 
	C159.527267,373.032227 160.728378,371.996368 162.093216,372.994141 
	C163.742599,374.199982 162.856094,375.608765 161.994659,376.922272 
	C156.525558,385.261536 150.029343,392.825684 143.645386,400.693390 
	C151.329437,402.065857 151.707474,402.989746 147.606171,409.512268 
	C134.770340,429.925842 136.058243,445.631989 152.486542,466.517212 
z"/>
<path fill="#000000" opacity="1.000000" stroke="none" 
	d="
M211.026550,288.187256 
	C207.778336,286.419800 204.809189,284.915192 202.016754,283.133575 
	C200.551102,282.198486 198.546677,280.957855 199.651062,278.812408 
	C200.617111,276.935699 202.553543,277.862183 204.138901,278.257812 
	C214.960632,280.958282 225.847397,283.271698 237.096237,282.637360 
	C243.058929,282.301147 248.996811,281.512848 254.960159,281.203491 
	C269.588623,280.444580 283.636688,281.724304 294.365417,293.520599 
	C294.701111,293.889709 295.075897,294.235657 295.348022,294.648102 
	C296.741455,296.760376 299.713654,298.816589 297.350128,301.532654 
	C295.296082,303.893066 292.630859,302.033142 290.557068,300.782562 
	C283.434235,296.487122 275.688324,293.993530 267.483368,293.484558 
	C260.361359,293.042786 253.180038,293.290649 246.035538,293.538849 
	C234.139603,293.952179 222.466537,293.171295 211.026550,288.187256 
z"/>
<path fill="#000000" opacity="1.000000" stroke="none" 
	d="
M499.157410,291.223022 
	C491.939819,292.671234 485.831726,295.562164 480.224854,299.617584 
	C478.315552,300.998566 476.259827,303.803284 473.797882,301.387939 
	C471.247894,298.886169 473.205170,296.143097 474.863892,293.784454 
	C481.871124,283.820496 492.019043,279.505646 503.617584,277.655273 
	C511.133881,276.456177 518.490112,277.384338 525.928345,278.435516 
	C534.034790,279.581146 541.840942,278.223724 549.103943,274.195068 
	C551.122253,273.075562 553.393738,271.684418 555.320374,274.310181 
	C556.998230,276.596863 555.409180,278.512146 554.053711,280.120972 
	C548.042053,287.256592 539.769165,289.732544 530.958557,290.219360 
	C522.656189,290.678101 514.306335,290.229004 505.978790,290.313202 
	C503.842010,290.334778 501.710358,290.861664 499.157410,291.223022 
z"/>
<path fill="#000000" opacity="1.000000" stroke="none" 
	d="
M586.783142,442.366699 
	C585.563171,448.021149 585.153137,453.547058 580.777161,457.619507 
	C577.661682,455.430267 578.739563,452.878601 579.223999,450.556915 
	C581.237793,440.904266 582.748413,431.235504 580.721924,421.386322 
	C580.288757,419.280914 580.114990,416.976837 579.102966,415.165955 
	C576.972046,411.352692 577.093750,408.858673 582.286743,408.197998 
	C580.005798,398.058533 572.795898,389.924988 571.104980,379.318207 
	C575.060364,379.094513 576.117554,381.329773 577.356750,383.167755 
	C583.441162,392.192352 587.038391,402.500610 592.152039,412.030731 
	C593.548035,414.632385 592.474487,416.208252 589.484680,416.241730 
	C588.367432,416.254242 587.247742,416.056824 585.594666,415.906525 
	C587.392883,424.758667 587.913269,433.322876 586.783142,442.366699 
z"/>
</svg>